HIERARCHY
ROOT Hips
{
	OFFSET	0.000000	0.000000	0.000000
	CHANNELS 6 Xposition Yposition Zposition Zrotation Xrotation Yrotation
	JOINT LeftHip
	{
		OFFSET	4.740440	-3.195970	-0.322709
		CHANNELS 3 Zrotation Xrotation Yrotation
		JOINT LeftKnee
		{
			OFFSET	-1.605680	-15.592300	1.005510
			CHANNELS 3 Zrotation Xrotation Yrotation
			JOINT LeftAnkle
			{
				OFFSET	-0.632401	-16.421000	-1.413730
				CHANNELS 3 Zrotation Xrotation Yrotation
				End Site
				{
					OFFSET	0.008423	-3.933000	-1.776750
				}
			}
		}
	}
	JOINT RightHip
	{
		OFFSET	-4.740440	-3.195970	-0.322709
		CHANNELS 3 Zrotation Xrotation Yrotation
		JOINT RightKnee
		{
			OFFSET	1.605680	-15.592300	1.005510
			CHANNELS 3 Zrotation Xrotation Yrotation
			JOINT RightAnkle
			{
				OFFSET	0.632401	-16.421000	-1.413730
				CHANNELS 3 Zrotation Xrotation Yrotation
				End Site
				{
					OFFSET	-0.008423	-3.933000	-1.776750
				}
			}
		}
	}
	JOINT Chest
	{
		OFFSET	0.000000	3.468200	0.078401
		CHANNELS 3 Zrotation Xrotation Yrotation
		JOINT LeftCollar
		{
			OFFSET	3.857650	15.070700	-0.011583
			CHANNELS 3 Zrotation Xrotation Yrotation
			JOINT LeftShoulder
			{
				OFFSET	3.979720	-1.940530	-0.165223
				CHANNELS 3 Zrotation Xrotation Yrotation
				JOINT LeftElbow
				{
					OFFSET	0.615844	-10.986600	-0.673886
					CHANNELS 3 Zrotation Xrotation Yrotation
					JOINT LeftWrist
					{
						OFFSET	0.826843	-10.854500	1.034220
						CHANNELS 3 Zrotation Xrotation Yrotation
						End Site
						{
							OFFSET	-1.679080	-8.456540	0.936217
						}
					}
				}
			}
		}
		JOINT RightCollar
		{
			OFFSET	-3.857650	15.070700	-0.011583
			CHANNELS 3 Zrotation Xrotation Yrotation
			JOINT RightShoulder
			{
				OFFSET	-3.979720	-1.940530	-0.165223
				CHANNELS 3 Zrotation Xrotation Yrotation
				JOINT RightElbow
				{
					OFFSET	-0.615845	-10.986600	-0.673886
					CHANNELS 3 Zrotation Xrotation Yrotation
					JOINT RightWrist
					{
						OFFSET	-0.826843	-10.854500	1.034220
						CHANNELS 3 Zrotation Xrotation Yrotation
						End Site
						{
							OFFSET	1.679080	-8.456540	0.936217
						}
					}
				}
			}
		}
		JOINT Neck
		{
			OFFSET	0.000000	15.101400	0.055730
			CHANNELS 3 Zrotation Xrotation Yrotation
			JOINT Head
			{
				OFFSET	0.000000	4.185120	1.488260
				CHANNELS 3 Zrotation Xrotation Yrotation
				End Site
				{
					OFFSET	0.000000	7.773420	-0.106016
				}
			}
		}
	}
}
MOTION
Frames:     13
Frame Time: 0.016667
-14.086367	20.672882	-15.325867	0.548990	-27.643787	-32.327759	51.992470	-30.004604	15.219563	48.490749	109.744629	-63.355305	-0.033286	-23.504433	13.443724	-20.902880	5.597592	8.344969	-8.735917	126.606903	28.757813	-11.375189	-16.554081	-16.474054	-3.222670	36.808525	-3.059034	-2.919643	-14.478707	-6.055246	-5.831431	-10.362962	-2.019763	23.772982	-100.108749	43.193272	38.039742	11.056983	-5.465829	-16.362875	-15.423079	-1.467188	11.027651	-28.348896	24.685659	75.146172	-62.629852	57.592026	-24.083370	13.815345	14.072149	-4.150160	-8.595387	5.010778	-7.861988	3.400034	34.357803	
-14.092543	20.669428	-15.320961	0.552570	-27.647112	-32.343285	51.987190	-29.982708	15.211038	48.474689	109.742027	-63.342232	-0.017156	-23.504608	13.457138	-20.881599	5.610136	8.254595	-8.650331	126.582298	28.581553	-11.377569	-16.557110	-16.467844	-3.216778	36.826519	-3.044165	-2.949594	-14.468540	-6.100738	-5.816151	-10.394230	-2.024601	23.593660	-100.089668	43.009693	37.985054	11.060897	-5.450145	-16.393229	-15.400141	-1.518152	11.058409	-28.372663	24.732445	75.031067	-62.712051	57.488323	-24.070566	13.839098	14.129743	-4.233249	-8.649931	4.902400	-7.795123	3.356842	34.326733	
-14.113763	20.661543	-15.307828	0.570897	-27.662489	-32.364273	51.953007	-29.929682	15.170019	48.454479	109.721672	-63.327255	0.004939	-23.506073	13.481782	-20.883982	5.619370	8.195179	-8.600365	126.565948	28.437593	-11.288313	-16.600758	-16.484171	-3.218862	36.861511	-3.019118	-3.002541	-14.453649	-6.178570	-5.792019	-10.454038	-2.061546	23.256063	-99.963501	42.699436	37.781654	11.048279	-5.363642	-16.472286	-15.345795	-1.609053	11.114559	-28.414732	24.684132	75.038963	-62.684013	57.511669	-24.021126	13.829437	14.165722	-4.365097	-8.780910	4.658710	-7.759874	3.230985	34.360062	
-14.120948	20.660950	-15.305785	0.578268	-27.668507	-32.366066	51.938164	-29.914230	15.154713	48.474583	109.710785	-63.346481	0.005162	-23.504484	13.477623	-20.878790	5.629200	8.144274	-8.587580	126.558517	28.352894	-11.359945	-16.576300	-16.558140	-3.209620	36.879681	-3.018803	-3.032582	-14.438885	-6.228162	-5.773088	-10.490771	-2.050750	23.157404	-99.931061	42.626221	37.772667	11.007838	-5.343013	-16.501657	-15.309463	-1.671353	11.155207	-28.456184	24.743351	74.927940	-62.750732	57.407490	-23.933380	13.822201	14.168403	-4.396734	-8.809025	4.591001	-7.754643	3.182690	34.392101	
-14.132276	20.667698	-15.301281	0.604935	-27.656662	-32.359921	51.915417	-29.886114	15.147130	48.574707	109.686279	-63.445396	-0.011015	-23.507757	13.474550	-20.872488	5.620189	8.063074	-8.578208	126.551933	28.243343	-11.420994	-16.565037	-16.563576	-3.203303	36.874889	-3.019373	-3.066613	-14.418145	-6.287821	-5.749166	-10.535473	-2.031116	23.058458	-99.903633	42.554283	37.711239	10.983258	-5.332518	-16.498386	-15.313759	-1.710640	11.145649	-28.468250	24.727764	74.895500	-62.735683	57.374847	-23.960373	13.815521	14.222320	-4.427020	-8.840282	4.504273	-7.756771	3.104419	34.429783	
-14.135774	20.670353	-15.299234	0.615828	-27.645935	-32.355206	51.912838	-29.881987	15.153258	48.612614	109.679955	-63.483173	0.006583	-23.499735	13.481008	-20.866791	5.614583	8.026365	-8.556980	126.541977	28.180033	-11.416093	-16.568762	-16.579731	-3.205368	36.860672	-3.019948	-3.071844	-14.403281	-6.307002	-5.739455	-10.551408	-2.014468	23.058458	-99.903633	42.554283	37.707302	10.983734	-5.331032	-16.484886	-15.308961	-1.723326	11.141448	-28.470516	24.743374	74.839821	-62.768604	57.302029	-23.923166	13.803533	14.244946	-4.430603	-8.844440	4.478909	-7.757769	3.077035	34.441917	
-14.146222	20.677479	-15.293704	0.649589	-27.612646	-32.340599	51.907459	-29.874043	15.175021	48.715569	109.662811	-63.585838	0.055887	-23.484587	13.478764	-20.871698	5.596724	7.991902	-8.539964	126.515976	28.153395	-11.416093	-16.568762	-16.579731	-3.195089	36.857197	-3.025342	-3.089818	-14.431143	-6.332686	-5.730933	-10.565369	-1.999874	23.125944	-99.892227	42.623405	37.706619	10.969292	-5.323034	-16.500957	-15.346739	-1.741825	11.141448	-28.470516	24.743374	74.864914	-62.779167	57.271782	-23.933821	13.796256	14.300847	-4.439275	-8.902987	4.468835	-7.742994	3.087082	34.446533	
-14.149550	20.679810	-15.291945	0.660461	-27.601927	-32.335899	51.905689	-29.871441	15.182034	48.748852	109.657257	-63.619019	0.070995	-23.480080	13.477696	-20.874374	5.586266	7.987658	-8.565774	126.518738	28.146900	-11.423553	-16.572357	-16.550674	-3.181802	36.885368	-3.029022	-3.102014	-14.473722	-6.341362	-5.733125	-10.567425	-2.024599	23.077003	-99.869026	42.572746	37.706310	10.953766	-5.315023	-16.515945	-15.386207	-1.760544	11.141448	-28.470516	24.743374	74.899086	-62.789951	57.279339	-23.940218	13.804337	14.330255	-4.442858	-8.964330	4.479563	-7.731676	3.096970	34.450306	
-14.158735	20.686693	-15.286988	0.688009	-27.581913	-32.315708	51.889568	-29.863623	15.186185	48.845356	109.641205	-63.715237	0.105950	-23.469671	13.475185	-20.882586	5.560914	7.969954	-8.572001	126.519341	28.125805	-11.418362	-16.576399	-16.542217	-3.171587	36.899696	-3.042798	-3.112399	-14.517697	-6.349602	-5.735749	-10.570256	-2.055987	22.996107	-99.844505	42.489094	37.695980	10.873091	-5.323533	-16.526096	-15.416038	-1.792609	11.153044	-28.469103	24.747789	75.027443	-62.814312	57.405075	-23.987709	13.863126	14.356274	-4.422658	-9.014332	4.525131	-7.720826	3.064481	34.490700	
-14.160662	20.689419	-15.286134	0.688672	-27.582413	-32.314079	51.882462	-29.853664	15.179087	48.878269	109.635765	-63.748047	0.107330	-23.469255	13.475088	-20.882433	5.593894	7.943460	-8.555168	126.484421	28.074463	-11.419667	-16.576870	-16.550756	-3.165157	36.921272	-3.045531	-3.120214	-14.530576	-6.364600	-5.730223	-10.579732	-2.048307	22.986713	-99.843468	42.479488	37.686333	10.829407	-5.333954	-16.500898	-15.412491	-1.803264	11.154647	-28.477247	24.742521	75.072357	-62.798466	57.473747	-24.014765	13.887062	14.353202	-4.400704	-9.025417	4.552090	-7.729191	3.044993	34.488930	
-14.166012	20.697319	-15.283551	0.697317	-27.573870	-32.310341	51.869362	-29.829561	15.172486	48.971161	109.620445	-63.840672	0.107330	-23.469255	13.475088	-20.885471	5.616767	7.921957	-8.541911	126.448456	28.051964	-11.426414	-16.573372	-16.560728	-3.121019	36.947353	-3.059055	-3.156287	-14.548213	-6.398019	-5.727804	-10.602298	-2.033217	22.986607	-99.841690	42.467789	37.669071	10.770841	-5.339626	-16.507900	-15.419189	-1.821501	11.171327	-28.495449	24.754936	75.160156	-62.823547	57.570332	-24.035313	13.942201	14.376274	-4.387309	-9.034746	4.662525	-7.712885	3.005735	34.455559	
-14.166294	20.697613	-15.283388	0.698706	-27.572493	-32.309750	51.869377	-29.829416	15.173436	48.974903	109.619949	-63.844524	0.107330	-23.469255	13.475088	-20.889162	5.630260	7.923115	-8.545645	126.433289	28.058222	-11.426414	-16.573372	-16.560728	-3.107032	36.956455	-3.063223	-3.157111	-14.552599	-6.397827	-5.728224	-10.608727	-2.035899	22.965294	-99.840431	42.440559	37.690231	10.668516	-5.436043	-16.503208	-15.414359	-1.822935	11.181931	-28.504810	24.766676	75.196999	-62.817471	57.598728	-24.069395	13.944361	14.395293	-4.388232	-9.038205	4.696130	-7.703096	3.008330	34.455647	
-14.168186	20.697052	-15.281386	0.713675	-27.583549	-32.273445	51.840828	-29.851124	15.150476	48.974903	109.619949	-63.844524	0.107330	-23.469255	13.475088	-20.914774	5.686182	7.905529	-8.560437	126.390549	28.082821	-11.426414	-16.573372	-16.560728	-3.077081	37.008461	-3.105852	-3.135049	-14.575330	-6.389385	-5.735668	-10.633706	-2.046432	22.881510	-99.840446	42.298496	37.670681	10.717924	-5.364968	-16.477606	-15.405213	-1.794029	11.197298	-28.549736	24.764883	75.288147	-62.810921	57.655785	-24.150425	13.938643	14.450683	-4.297839	-9.049425	4.764195	-7.775264	3.026933	34.506657	
